<?xml version="1.0" encoding="UTF-8" standalone="no"?>
<!-- Created with Inkscape (http://www.inkscape.org/) -->

<svg
   version="1.1"
   id="svg2"
   width="2560"
   height="1000"
   viewBox="505.91 608.31 1548.19 223.38"
   sodipodi:docname="Logo Source file.ai"
   xmlns:inkscape="http://www.inkscape.org/namespaces/inkscape"
   xmlns:sodipodi="http://sodipodi.sourceforge.net/DTD/sodipodi-0.dtd"
   xmlns="http://www.w3.org/2000/svg"
   xmlns:svg="http://www.w3.org/2000/svg">
  <defs
     id="defs6">
    <clipPath
       clipPathUnits="userSpaceOnUse"
       id="clipPath16">
      <path
         d="M 0,1080 H 1920 V 0 H 0 Z"
         id="path14" />
    </clipPath>
  </defs>
  <sodipodi:namedview
     id="namedview4"
     pagecolor="#ffffff"
     bordercolor="#000000"
     borderopacity="0.25"
     inkscape:showpageshadow="2"
     inkscape:pageopacity="0.0"
     inkscape:pagecheckerboard="0"
     inkscape:deskcolor="#d1d1d1" />
  <g
     id="g8"
     inkscape:groupmode="layer"
     inkscape:label="Logo Source file"
     transform="matrix(1.3333333,0,0,-1.3333333,0,1440)">
    <g
       id="g10">
      <g
         id="g12"
         clip-path="url(#clipPath16)">
        <g
           id="g18"
           transform="translate(474.8687,537.4805)">
          <path
             d="m 0,0 c -1.505,3.366 -3.638,6.628 -6.376,9.827 -2.739,3.178 -6.168,6.126 -10.308,8.802 l -2.028,-0.502 -0.502,2.028 c -0.23,0.105 -0.418,0.209 -0.585,0.335 -0.167,0.105 -0.356,0.209 -0.586,0.334 -1.129,0.669 -2.488,1.296 -4.118,1.924 -1.611,0.606 -3.346,1.254 -5.206,1.924 -1.84,0.669 -3.722,1.442 -5.624,2.278 -1.903,0.837 -3.681,1.757 -5.353,2.76 l -1.694,-0.334 -0.334,1.672 c -2.342,1.129 -4.244,2.906 -5.708,5.374 -1.442,2.467 -2.237,4.933 -2.342,7.401 -0.125,2.446 0.669,4.516 2.342,6.209 1.673,1.673 4.474,2.342 8.405,2.008 l 1.505,0.836 0.836,-1.171 c 2.008,-0.564 3.617,-1.547 4.788,-2.948 1.171,-1.401 2.07,-3.011 2.677,-4.871 0.627,-1.84 1.045,-3.764 1.254,-5.771 0.23,-2.028 0.397,-3.93 0.523,-5.708 l 15.764,15.43 v 1.506 h 1.693 l 7.549,7.401 -8.573,2.007 c -4.349,4.809 -9.346,8.405 -14.928,10.747 l -1.673,-0.837 -0.69,1.673 c -3.679,1.233 -7.526,1.84 -11.499,1.84 -3.972,0 -7.903,-0.669 -11.813,-2.007 -6.397,-2.237 -11.478,-5.875 -15.283,-10.914 l 0.334,-2.175 -2.174,-0.334 c -3.262,-5.374 -4.663,-11.311 -4.202,-17.793 0.334,-4.264 1.4,-8.07 3.178,-11.415 1.797,-3.366 4.098,-6.377 6.899,-9.074 l 1.672,0.334 0.335,-2.007 c 0.335,-0.229 0.837,-0.669 1.506,-1.338 l 2.195,0.334 0.167,-2.027 c 3.115,-2.112 6.461,-4.015 9.973,-5.688 3.533,-1.693 7.088,-3.302 10.663,-4.871 4.14,-1.798 7.297,-3.888 9.492,-6.293 2.174,-2.426 3.576,-4.934 4.182,-7.569 0.627,-2.613 0.564,-5.248 -0.167,-7.882 -0.711,-2.635 -1.924,-5.059 -3.597,-7.297 l -0.167,-2.864 -2.362,0.167 c -1.673,-1.673 -3.576,-3.011 -5.708,-4.014 -2.112,-1.025 -4.307,-1.61 -6.544,-1.777 -2.238,-0.168 -4.454,0.229 -6.628,1.191 -2.175,0.941 -4.223,2.531 -6.126,4.767 l 2.007,-12.921 c -2.781,1.673 -5.624,3.743 -8.468,6.21 -2.843,2.467 -5.394,5.604 -7.631,9.408 l -2.028,0.502 0.669,2.007 c -0.878,1.568 -1.61,3.22 -2.174,4.955 -0.565,1.736 -1.109,3.555 -1.673,5.457 l -5.373,-9.241 c -1.903,2.468 -3.324,5.039 -4.286,7.736 -0.941,2.676 -1.589,5.54 -1.924,8.551 l -1.171,0.837 1.004,1.358 c -0.23,2.008 -0.314,4.099 -0.251,6.294 0.041,2.174 0.125,4.391 0.251,6.627 l -1.004,1.004 c -3.596,-6.377 -6.001,-12.461 -7.234,-18.211 -1.212,-5.77 -1.505,-11.059 -0.836,-15.868 l 1.024,-0.837 -0.857,-1.003 c 0.23,-0.795 0.418,-1.506 0.586,-2.196 0.188,-0.669 0.376,-1.338 0.606,-2.007 l 1.17,-0.669 -0.501,-1.338 c 1.108,-3.032 2.592,-5.708 4.433,-8.07 1.86,-2.342 3.951,-4.308 6.293,-5.875 l 3.867,6.899 c 0.9,-2.801 2.259,-5.499 4.119,-8.07 1.84,-2.572 3.931,-4.977 6.294,-7.214 h 1.003 l 0.167,-1.003 c 1.673,-1.464 3.241,-2.635 4.704,-3.533 l 1.841,0.334 0.334,-1.505 c 4.704,-2.802 9.618,-4.37 14.782,-4.704 l -1.36,5.707 c 3.701,-0.543 7.402,-0.585 11.082,-0.083 3.701,0.502 7.234,1.547 10.579,3.115 l 0.502,1.672 1.526,-0.669 c 6.022,3.137 11.228,7.444 15.598,12.921 4.369,5.479 7.38,11.479 9.074,17.96 l -1.192,1.84 1.86,1.192 c 0.669,3.449 0.816,6.962 0.419,10.475 C 2.467,-6.795 1.526,-3.345 0,0"
             style="fill:#fff;fill-opacity:1;fill-rule:nonzero;stroke:none"
             id="path20" />
        </g>
        <g
           id="g22"
           transform="translate(563.4136,583.4775)">
          <path
             d="m 0,0 c 2.634,-1.338 5.101,-3.031 7.401,-5.038 2.279,-2.008 4.224,-4.537 5.791,-7.548 L 10.328,0.669 8.99,2.008 10.328,3.346 7.652,22.33 H 3.617 L 2.112,20.804 0.606,22.33 H -26.93 v 10.913 l 5.374,7.046 h -14.322 l -1.526,-1.525 -1.694,1.525 h -18.378 l 5.373,-7.046 V 22.33 h -7.902 l -1.004,-1.004 -1.004,1.004 h -13.255 l -1.505,-1.526 -1.694,1.526 h -8.217 l -0.836,-6.879 1.338,-1.359 -1.338,-1.338 -4.705,-25.34 c 0.774,1.442 1.924,2.822 3.43,4.118 1.526,1.276 3.094,2.447 4.704,3.513 1.631,1.066 3.24,2.007 4.871,2.844 1.631,0.857 2.949,1.609 3.952,2.278 l 0.669,2.175 2.007,-0.669 c 2.028,1.233 5.018,2.028 8.99,2.362 3.973,0.335 7.799,0.502 11.499,0.502 h 6.252 l -6.252,-3.533 v -30.379 l 1.506,-1.506 -1.506,-1.693 V -57.58 l 1.506,-1.505 -1.506,-1.673 v -5.54 l 1.673,-1.694 -1.673,-1.672 v -13.089 l -5.373,-6.879 c 2.677,-2.467 4.976,-4.955 6.9,-7.464 1.903,-2.529 3.534,-5.289 4.892,-8.321 l 1.526,-0.334 -0.522,-1.84 c 1.129,-2.697 2.028,-5.666 2.718,-8.907 0.669,-3.24 1.275,-6.815 1.861,-10.746 l 1.338,0.689 c 0.794,5.582 1.777,10.434 2.969,14.51 1.17,4.077 2.78,7.799 4.809,11.165 l -0.335,2.007 1.694,0.168 c 2.132,3.136 4.829,6.168 8.07,9.073 l -5.374,6.879 v 19.131 l -1.672,1.673 1.672,1.693 v 20.469 l -1.672,1.673 1.672,1.693 v 26.846 l -1.672,1.526 1.672,1.672 V 4.537 c 1.569,0.209 3.116,0.335 4.621,0.335 1.506,0 2.99,-0.063 4.433,-0.168 l 1.359,1.171 1.17,-1.338 C -13.109,4.308 -10.642,3.826 -7.966,3.115 -5.269,2.384 -2.614,1.338 0,0"
             style="fill:#fff;fill-opacity:1;fill-rule:nonzero;stroke:none"
             id="path24" />
        </g>
        <g
           id="g26"
           transform="translate(650.9541,514.4824)">
          <path
             d="m 0,0 -1.505,0.669 0.836,1.693 -10.078,33.39 -0.836,0.335 0.502,1.191 -4.37,14.427 -2.676,1.17 1.338,3.199 -8.384,28.205 3.68,7.046 h -20.134 l -2.007,-2.028 -2.196,2.028 h -2.843 l -1.025,-0.837 -0.836,0.837 h -12.085 l 3.869,-7.046 -3.869,-12.942 0.502,-1.338 -1.171,-0.502 -5.373,-18.462 1.004,-2.362 -2.175,-1.003 c -2.467,-8.28 -4.893,-16.497 -7.296,-24.672 -2.405,-8.175 -4.893,-16.392 -7.465,-24.671 l 1.004,-2.175 -1.861,-0.857 -2.676,-9.053 -8.05,-6.879 h 12.252 l 0.837,1.004 1.004,-1.004 h 24.838 l -3.68,6.879 c 0.878,3.471 1.694,6.858 2.425,10.161 0.732,3.284 1.485,6.628 2.258,9.974 l -4.181,2.529 h 4.725 c 1.338,6.293 4.725,21.744 4.997,23.082 0.334,1.611 0.669,3.325 1.003,5.102 l -1.17,2.697 2.028,0.836 6.544,28.539 9.387,-38.616 6.21,-3.513 h -5.457 c 1.756,-8.404 5.729,-27.179 6.461,-30.546 0.899,-4.035 1.798,-7.443 2.696,-10.245 l -3.7,-6.879 h 21.828 l 1.338,1.339 1.359,-1.339 h 14.258 l -7.881,6.879 z"
             style="fill:#fff;fill-opacity:1;fill-rule:nonzero;stroke:none"
             id="path28" />
        </g>
        <g
           id="g30"
           transform="translate(760.2183,540.3447)">
          <path
             d="m 0,0 5.541,7.046 -26.03,-6.209 -1.339,-2.028 -1.839,1.191 -10.915,-2.697 6.545,-7.046 c 0,-3.909 -0.586,-7.422 -1.757,-10.495 -1.17,-3.074 -3.052,-5.499 -5.624,-7.297 l -0.501,-1.84 -2.029,0.502 c -2.781,-1.464 -6.314,-2.195 -10.558,-2.195 -4.704,0 -8.802,0.94 -12.252,2.78 -3.471,1.84 -6.377,4.286 -8.74,7.297 l -1.839,0.335 0.502,1.505 c -2.342,3.701 -4.119,7.84 -5.29,12.44 -1.171,4.579 -1.819,9.388 -1.923,14.426 l -1.694,1.506 1.526,1.505 c 0.105,0.564 0.168,1.15 0.168,1.777 v 1.757 l -1.527,1.505 2.028,1.861 c 1.004,7.715 3.345,14.363 7.046,19.967 3.701,5.602 8.447,9.345 14.259,11.248 l 1.526,2.342 2.342,-1.506 c 0.669,0.105 1.317,0.188 1.924,0.251 0.627,0.063 1.275,0.084 1.944,0.084 4.14,0 7.819,-0.774 11.081,-2.342 3.241,-1.568 6.314,-4.809 9.22,-9.743 l -1.17,-8.217 20.134,13.256 0.334,1.673 1.861,-0.168 3.847,2.53 c -3.575,5.018 -8.05,9.283 -13.423,12.754 -5.373,3.471 -11.687,5.875 -18.963,7.213 l -1.673,-1.171 -1.191,1.673 c -0.544,0 -0.335,0.02 0.69,0.084 1.003,0.062 2.111,0.104 3.345,0.167 1.233,0.062 2.321,0.104 3.282,0.167 0.941,0.062 1.13,0.104 0.586,0.167 -0.565,0.063 -2.196,0.084 -4.872,0.084 h -13.088 c -11.75,0 -21.682,-2.572 -29.794,-7.715 -8.112,-5.144 -14.405,-11.876 -18.9,-20.155 l 0.522,-2.174 -1.86,-0.502 c -0.231,-0.335 -0.565,-0.962 -1.004,-1.84 l 0.669,-1.171 -1.338,-0.857 c -3.032,-7.381 -4.537,-15.494 -4.537,-24.337 0,-9.617 1.631,-18.461 4.872,-26.511 l 2.676,-1.171 -1.004,-2.53 c 2.907,-6.042 6.921,-11.269 12.001,-15.681 5.102,-4.433 11.228,-7.757 18.378,-9.994 l 4.537,2.342 2.028,-3.847 c 1.903,-0.46 3.931,-0.773 6.126,-0.94 2.175,-0.168 4.391,-0.251 6.628,-0.251 4.683,0 8.614,0.501 11.75,1.525 3.115,1.004 5.708,2.196 7.715,3.597 2.007,1.4 3.575,2.802 4.705,4.202 1.107,1.401 1.944,2.488 2.508,3.262 v -9.89 h 3.534 l 1.003,1.004 1.003,-1.004 H 5.541 L 0,-39.62 v 24.671 l -1.171,1.171 1.171,1.339 z"
             style="fill:#fff;fill-opacity:1;fill-rule:nonzero;stroke:none"
             id="path32" />
        </g>
        <g
           id="g34"
           transform="translate(1152.6685,588.4541)">
          <path
             d="m 0,0 c 3.241,0.041 6.377,-0.104 9.409,-0.439 l 1.338,1.191 1.003,-1.358 c 2.572,-0.44 5.332,-1.067 8.3,-1.84 2.97,-0.774 5.854,-1.84 8.657,-3.179 2.801,-1.358 5.373,-3.011 7.714,-4.955 2.363,-1.965 4.245,-4.286 5.708,-6.962 l -4.537,26.846 -1.673,1.338 1.338,1.359 -0.501,5.353 H 18.294 l -1.672,-1.673 -1.673,1.673 h -31.278 l -1.359,-1.339 -1.171,1.339 h -34.33 l 4.369,-7.214 -10.579,-18.461 0.502,-3.179 -3.011,-1.358 -30.735,-55.72 0.502,-2.676 -2.676,-1.191 -0.502,-1.171 0.168,-1.84 -1.673,-0.67 -4.62,-8.404 -4.098,8.07 -1.84,0.502 0.669,1.84 -12.754,24.504 c 2.78,1.338 5.457,3.135 7.966,5.373 2.509,2.237 4.892,5.143 7.129,8.739 l -0.334,1.506 1.338,0.502 c 0.69,1.107 1.233,2.404 1.694,3.867 l -1.192,2.509 2.362,1.171 c 0.335,1.464 0.565,3.115 0.67,4.955 0.104,1.841 0.167,3.555 0.167,5.123 0,3.345 -0.585,6.544 -1.757,9.555 -1.171,3.031 -2.718,5.937 -4.62,8.739 l -2.007,0.168 v 2.341 c -3.032,3.701 -6.649,6.69 -10.831,8.99 -4.202,2.3 -8.865,3.43 -14.029,3.43 h -5.875 l -1.672,-1.673 -1.673,1.673 h -30.881 l -1.526,-1.506 -1.505,1.506 h -16.288 l 5.373,-7.046 v -32.22 l 2.363,-2.195 -2.363,-2.341 v -7.381 l 2.029,-2.007 -2.029,-1.861 v -35.919 l 1.339,-1.171 -1.339,-1.339 v -11.582 l -5.373,-6.879 h 12.085 l 1.192,1.338 1.338,-1.338 h 21.305 l -5.353,6.879 v 21.807 l -1.024,1.024 1.024,1.003 v 52.876 l -1.86,1.84 1.86,1.673 v 6.711 h 20.804 c 2.906,0 5.478,-0.669 7.715,-2.007 h 2.697 l 0.167,-2.174 c 3.136,-2.928 4.704,-6.545 4.704,-10.914 0,-4.14 -1.484,-7.694 -4.453,-10.663 -2.969,-2.969 -6.586,-4.453 -10.83,-4.453 h -0.335 l -1.338,-1.506 -1.338,1.506 h -7.841 v -8.803 l 13.361,-26.448 2.362,-0.669 -0.669,-2.342 9.555,-18.461 -2.174,-6.879 h 52.855 l -1.673,6.879 11.081,19.967 -4.369,2.697 h 5.854 l 12.774,23.312 6.544,11.75 -0.502,2.697 2.697,1.338 9.2,16.957 v -20.637 l 1.004,-1.024 -1.004,-1.003 v -5.708 l 1.84,-1.84 -1.84,-1.84 v -32.909 l 1.004,-1.004 -1.004,-0.836 v -11.917 l -5.373,-6.879 h 25.988 l 1.526,1.505 1.526,-1.505 h 32.408 l 1.505,1.505 1.338,-1.505 h 12.754 l 0.836,8.217 -1.338,1.171 1.672,1.338 4.203,24.169 c -1.902,-3.471 -4.328,-6.314 -7.297,-8.551 -2.969,-2.237 -6.167,-4.035 -9.576,-5.373 -3.407,-1.339 -6.941,-2.259 -10.579,-2.76 -3.637,-0.502 -7.025,-0.815 -10.14,-0.92 l -1.505,-1.526 -1.527,1.358 c -1.902,0 -3.763,0.042 -5.624,0.168 -1.84,0.105 -3.721,0.209 -5.624,0.334 v 17.625 l -1.338,1.506 1.338,1.338 v 8.05 l -6.084,3.533 H 2.342 c 1.798,0 3.47,-0.398 5.038,-1.171 1.569,-0.795 2.948,-1.798 4.12,-3.031 1.17,-1.234 2.09,-2.656 2.759,-4.286 0.69,-1.611 1.025,-3.262 1.025,-4.935 l 8.55,31.55 H 9.053 L 7.38,-28.456 5.875,-26.783 H -9.743 V -0.439 C -6.481,-0.209 -3.241,-0.063 0,0"
             style="fill:#fff;fill-opacity:1;fill-rule:nonzero;stroke:none"
             id="path36" />
        </g>
        <g
           id="g38"
           transform="translate(1278.3867,523.0547)">
          <path
             d="m 0,0 -1.84,0.522 0.669,1.84 -11.75,22.497 -2.007,0.501 0.669,2.175 -7.046,13.757 7.213,11.583 -0.167,1.359 1.171,0.167 0.502,0.669 -0.335,2.342 1.84,0.335 11.416,17.96 9.91,7.046 h -20.302 l -1.526,-1.506 -1.672,1.506 h -10.914 l 1.003,-7.046 -13.757,-22.142 0.334,-2.697 -2.174,-0.335 -8.405,-13.422 v 6.878 l -2.174,2.008 2.174,2.027 v 27.683 l 5.374,7.046 h -11.75 l -1.506,-1.506 -1.505,1.506 h -21.159 l 5.373,-7.046 V 64.458 l 2.342,-2.174 -2.342,-2.175 V 29.563 l 1.171,-1.024 -1.171,-0.837 V -8.217 l 1.338,-1.171 -1.338,-1.339 v -11.582 l -5.373,-6.878 h 12.085 l 1.171,1.337 1.358,-1.337 h 21.306 l -5.374,6.878 v 6.711 l -1.003,1.004 1.003,1.003 v 5.708 l -1.84,1.84 1.84,1.693 v 4.705 l 11.249,17.792 9.91,-18.984 2.175,-0.669 -0.67,-2.342 9.576,-18.461 -2.196,-6.878 h 16.622 l 1.673,1.672 1.694,-1.672 h 15.597 l -6.879,6.878 z"
             style="fill:#fff;fill-opacity:1;fill-rule:nonzero;stroke:none"
             id="path40" />
        </g>
        <g
           id="g42"
           transform="translate(926.7012,520.96)">
          <path
             d="M 0,0 C -0.84,-1.84 -1.99,-3.43 -3.45,-4.78 L -3.62,-6.96 H -6.3 c -2.23,-1.34 -4.83,-2.01 -7.73,-2.01 h -20.81 v 6.55 l -1.84,1.84 1.84,1.84 v 16.45 l -6.21,3.54 h 24.01 l 1.33,1.5 1.34,-1.5 h 0.34 c 4.26,0 7.86,-1.49 10.83,-4.46 C -0.23,13.82 1.25,10.271 1.25,6.13 1.25,3.89 0.83,1.86 0,0 m 26.09,15.04 -2.34,1 1.17,2.34 c -0.34,0.8 -0.65,1.53 -0.92,2.2 -0.29,0.67 -0.65,1.271 -1.09,1.84 l -1.36,0.5 0.34,1.17 c -1.57,2.471 -3.41,4.681 -5.54,6.63 -2.12,1.96 -4.48,3.61 -7.05,4.95 2.7,3.03 4.64,6.27 5.87,9.75 l -1,2.5 2.01,0.84 c 0.46,1.9 0.69,4.14 0.69,6.73 0,5.361 -1.36,10.29 -4.04,14.76 -2.69,4.48 -6.21,8.01 -10.58,10.58 l -2.67,-0.5 -0.5,2.18 c -3.7,1.56 -7.57,2.341 -11.59,2.341 h -22.16 l -1.34,-1.341 -1.19,1.341 h -13.92 l -1.51,-1.511 -1.5,1.511 H -65.38 L -60.01,77.8 V 53.13 l 1.84,-1.84 -1.84,-1.84 v -1.49 h 25.17 v 5 l -1.17,1.17 1.17,1.01 v 11.58 h 12.09 l 2.01,1.69 1.5,-1.69 c 2.93,-0.21 5.42,-1.42 7.49,-3.6 2.07,-2.17 3.09,-4.72 3.09,-7.63 0,-2.8 -0.9,-8.51 -2.68,-10.639 l -0.33,-2.511 -2.36,0.17 c -1.91,-1.13 -3.85,-1.67 -5.88,-1.67 h -40.1 v -0.15 h -64.34 v 26.36 c 3.24,0.21 6.46,0.36 9.63,0.42 3.2,0.04 6.32,-0.08 9.33,-0.42 l 1.34,1.18 1,-1.34 c 2.59,-0.46 5.35,-1.07 8.32,-1.86 2.97,-0.78 5.84,-1.84 8.64,-3.179 2.8,-1.341 5.37,-3.011 7.73,-4.961 2.35,-1.96 4.25,-4.28 5.71,-6.96 l -4.54,26.85 -1.33,1.36 0.83,1.33 -0.33,5.381 h -18.46 l -1.53,-1.701 -1.67,1.701 h -31.39 l -1.19,-1.361 -1.34,1.361 h -21.3 l 5.37,-7.051 V 37.851 l 1.01,-1.011 -1.01,-1.02 v -5.71 l 1.84,-1.839 -1.84,-1.841 V -6.479 l 1.01,-1 -1.01,-0.841 v -11.92 l -5.37,-6.87 h 25.84 l 1.51,1.5 1.52,-1.5 h 32.39 l 1.51,1.5 1.33,-1.5 h 12.78 l 1,8.211 -1.17,1.17 1.67,1.359 3.87,24.17 c -1.8,-3.47 -4.18,-6.33 -7.15,-8.57 -2.97,-2.24 -6.15,-4.01 -9.55,-5.37 -3.43,-1.339 -6.97,-2.259 -10.67,-2.759 -3.7,-0.511 -7.11,-0.821 -10.24,-0.921 l -1.51,-1.53 -1.34,1.36 c -1.9,0 -3.78,0.04 -5.62,0.17 -1.84,0.1 -3.72,0.21 -5.62,0.33 V 8.14 l -1.51,1.5 1.51,1.34 v 8.07 l -6.05,3.511 h 70.39 V 13.18 l 1.34,-1.18 -1.34,-1.17 v -31.04 l -5.37,-6.88 h 11.91 l 1.34,1.34 1.34,-1.34 h 35.59 l 1.67,1.67 1.69,-1.67 h 5.88 c 5.14,0 9.89,1.08 14.26,3.26 4.37,2.19 8.11,5.06 11.25,8.65 l -0.17,2.35 2,0.16 c 1.91,2.7 3.37,5.61 4.37,8.72 1.01,3.14 1.51,6.5 1.51,10.08 0,3.24 -0.4,6.21 -1.17,8.91"
             style="fill:#fff;fill-opacity:1;fill-rule:nonzero;stroke:none"
             id="path44" />
        </g>
        <g
           id="g46"
           transform="translate(1343.0962,588.4541)">
          <path
             d="m 0,0 c 3.199,0.041 6.293,-0.104 9.325,-0.439 l 1.338,1.191 1.004,-1.358 c 2.571,-0.44 5.331,-1.067 8.3,-1.84 2.969,-0.774 5.854,-1.84 8.656,-3.179 2.802,-1.358 5.374,-3.011 7.715,-4.955 2.363,-1.965 4.244,-4.286 5.708,-6.962 l -4.537,26.846 -1.339,1.338 0.837,1.359 -0.335,5.353 H 18.211 l -1.505,-1.673 -1.673,1.673 h -31.404 l -1.171,-1.339 -1.337,1.339 h -21.327 l 5.374,-7.046 v -39.935 l 1.003,-1.024 -1.003,-1.003 v -5.708 l 1.84,-1.84 -1.84,-1.84 v -32.909 l 1.003,-1.004 -1.003,-0.836 v -11.917 l -5.374,-6.879 h 25.864 l 1.505,1.505 1.505,-1.505 h 32.407 l 1.506,1.505 1.338,-1.505 h 12.753 l 1.004,8.217 -1.171,1.171 1.673,1.338 3.868,24.169 c -1.798,-3.471 -4.161,-6.314 -7.129,-8.551 -2.969,-2.237 -6.169,-4.035 -9.577,-5.373 -3.407,-1.339 -6.962,-2.259 -10.641,-2.76 -3.701,-0.502 -7.109,-0.815 -10.245,-0.92 l -1.506,-1.526 -1.359,1.358 c -1.902,0 -3.763,0.042 -5.624,0.168 -1.84,0.105 -3.722,0.209 -5.624,0.334 v 17.625 l -1.506,1.506 1.506,1.338 v 8.05 l -6.042,3.533 H 2.258 c 3.701,0 6.753,-1.401 9.158,-4.202 2.404,-2.802 3.659,-5.875 3.784,-9.221 l 8.551,31.55 H 8.969 l -1.505,-1.673 -1.672,1.673 H -9.659 V -0.439 C -6.397,-0.209 -3.199,-0.063 0,0"
             style="fill:#fff;fill-opacity:1;fill-rule:nonzero;stroke:none"
             id="path48" />
        </g>
        <g
           id="g50"
           transform="translate(1530.8481,461.627)">
          <path
             d="m 0,0 c -3.471,1.673 -6.983,3.701 -10.496,6.043 -3.533,2.362 -7.025,4.955 -10.495,7.798 -3.471,2.865 -6.712,5.917 -9.743,9.158 l -2.342,0.334 0.167,2.008 c -2.007,2.362 -3.888,4.787 -5.624,7.317 -1.736,2.509 -3.262,5.122 -4.62,7.799 l -4.349,-5.206 c -4.37,5.373 -8.406,11.081 -12.085,17.123 l -2.028,0.168 0.335,2.676 c -3.91,6.502 -7.444,13.276 -10.559,20.322 4.348,1.108 8.384,3.178 12.085,6.21 l 0.167,2.676 2.508,-0.167 c 3.701,3.7 6.377,8.008 8.05,12.941 l -1.171,2.509 2.363,1.171 c 0.335,1.464 0.544,3.115 0.67,4.955 0.104,1.841 0.166,3.555 0.166,5.123 0,3.345 -0.585,6.544 -1.777,9.555 -1.171,3.031 -2.697,5.937 -4.6,8.739 l -2.028,0.168 v 2.341 c -3.011,3.701 -6.627,6.69 -10.83,8.99 -4.181,2.3 -8.865,3.43 -14.008,3.43 h -5.875 l -1.673,-1.673 -1.672,1.673 H -93.5 l -1.337,-1.339 -1.192,1.339 h -24.337 l -1.505,-1.506 -1.506,1.506 h -16.287 l 5.373,-7.046 v -12.587 l 2.342,-2.175 -2.342,-2.362 V 92.998 l 2.008,-2.007 -2.008,-1.861 V 53.211 l 1.339,-1.171 -1.339,-1.339 V 39.119 l -5.373,-6.879 h 12.085 l 1.17,1.338 1.36,-1.338 h 21.305 l -5.374,6.879 v 13.59 l -1.003,1.003 1.003,1.004 v 71.337 h 20.825 c 2.906,0 5.478,-0.669 7.715,-2.007 h 2.676 l 0.167,-2.174 c 3.136,-2.928 4.704,-6.545 4.704,-10.914 0,-4.14 -1.484,-7.694 -4.432,-10.663 -2.969,-2.969 -6.586,-4.453 -10.83,-4.453 h -0.335 l -1.359,-1.506 -1.338,1.506 h -8.676 V 74.829 c 2.006,-4.202 4.996,-10.141 7.087,-13.736 2.405,-4.14 4.893,-8.217 7.464,-12.252 l 1.861,-0.167 -0.167,-2.175 c 3.115,-4.6 6.293,-9.011 9.47,-13.255 3.2,-4.265 6.294,-8.28 9.326,-12.085 l 1.839,-0.335 -0.167,-1.86 c 1.108,-1.568 2.237,-3.011 3.366,-4.349 1.109,-1.359 2.112,-2.635 3.011,-3.868 l 5.039,7.213 c 3.91,-3.24 8.175,-6.189 12.753,-8.802 4.579,-2.635 9.409,-4.892 14.427,-6.816 l 1.526,0.69 0.502,-1.526 c 5.039,-1.902 10.182,-3.408 15.43,-4.517 5.269,-1.129 10.475,-1.86 15.618,-2.195 l 1.338,1.171 C 6.712,-3.011 3.45,-1.672 0,0"
             style="fill:#fff;fill-opacity:1;fill-rule:nonzero;stroke:none"
             id="path52" />
        </g>
      </g>
    </g>
  </g>
</svg>


